<?xml version="1.0" encoding="utf-8"?>
<!-- Generator: Adobe Illustrator 19.1.0, SVG Export Plug-In . SVG Version: 6.00 Build 0)  -->
<svg version="1.1" id="Layer_1" xmlns="http://www.w3.org/2000/svg" xmlns:xlink="http://www.w3.org/1999/xlink" x="0px" y="0px"
	 viewBox="0 0 261.8 25.6" style="enable-background:new 0 0 261.8 25.6;" xml:space="preserve">
<style type="text/css">
	.st0{fill:#FFFFFF;}
</style>
<g>
	<polygon class="st0" points="19,25.6 0,1.1 0.8,0.5 19,24 37.7,0 56.3,24 75,0 93.6,24 112.2,0 130.9,24 149.5,0 168.2,24 186.8,0 
		205.4,24 224.1,0 242.7,24 261,0.5 261.8,1.1 242.7,25.6 224.1,1.6 205.4,25.6 186.8,1.6 168.2,25.6 149.5,1.6 130.9,25.6 
		112.2,1.6 93.6,25.6 75,1.6 56.3,25.6 37.7,1.6 	"/>
</g>
</svg>
